<svg width="20" height="22" viewBox="0 0 20 22" fill="none" xmlns="http://www.w3.org/2000/svg">
<path d="M1.9 4.73333L3.08557 13.275C3.22282 14.2638 4.06825 15 5.06658 15L15.8334 15C16.8317 15 17.6772 14.2638 17.8144 13.275L18.7632 6.43955C18.8883 5.53778 18.1878 4.73333 17.2774 4.73333L1.9 4.73333ZM1.9 4.73333L1.60486 2.4136C1.50205 1.60558 0.814537 1 0 1V1" stroke="#303030" stroke-width="1.5"/>
<path d="M7 19.5C7 18.6716 6.32843 18 5.5 18C4.67157 18 4 18.6716 4 19.5C4 20.3284 4.67157 21 5.5 21C6.32843 21 7 20.3284 7 19.5Z" stroke="#303030" stroke-width="1.5"/>
<path d="M17 19.5C17 18.6716 16.3284 18 15.5 18C14.6716 18 14 18.6716 14 19.5C14 20.3284 14.6716 21 15.5 21C16.3284 21 17 20.3284 17 19.5Z" stroke="#303030" stroke-width="1.5"/>
</svg>
