<svg width="34" height="35" viewBox="0 0 34 35" fill="none" xmlns="http://www.w3.org/2000/svg">
<path d="M17 0.84375C7.81584 0.84375 0.34375 8.31584 0.34375 17.5C0.34375 26.6842 7.81584 34.1562 17 34.1562C26.1842 34.1562 33.6562 26.6842 33.6562 17.5C33.6562 8.31584 26.1842 0.84375 17 0.84375ZM26.6094 15.43C26.6094 15.6131 26.5366 15.7886 26.4072 15.9181C26.2777 16.0475 26.1022 16.1203 25.9191 16.1203H21.1512C21.0147 16.1205 20.8811 16.0801 20.7675 16.0043C20.6539 15.9285 20.5654 15.8207 20.5131 15.6945C20.4609 15.5683 20.4473 15.4295 20.4741 15.2956C20.5009 15.1616 20.5668 15.0387 20.6636 14.9423L22.4389 13.167L21.9905 12.6457C21.1883 11.8129 20.1924 11.192 19.0916 10.8383C17.9908 10.4845 16.8195 10.4091 15.6825 10.6187C14.5454 10.8283 13.478 11.3164 12.5757 12.0394C11.6734 12.7623 10.9643 13.6976 10.5118 14.7616C10.0593 15.8256 9.87757 16.9852 9.98275 18.1366C10.0879 19.288 10.4768 20.3954 11.1146 21.3598C11.7524 22.3242 12.6192 23.1155 13.6376 23.663C14.656 24.2105 15.7941 24.4971 16.9504 24.4972C18.3973 24.4959 19.8085 24.0468 20.9902 23.2117C22.1718 22.3766 23.0661 21.1962 23.5504 19.8327C23.6065 19.6739 23.6933 19.5277 23.8059 19.4025C23.9185 19.2772 24.0547 19.1754 24.2066 19.1028C24.3586 19.0302 24.5234 18.9882 24.6915 18.9793C24.8597 18.9703 25.028 18.9946 25.1868 19.0507C25.3456 19.1068 25.4918 19.1936 25.617 19.3062C25.7422 19.4188 25.8441 19.555 25.9167 19.707C25.9893 19.8589 26.0313 20.0237 26.0402 20.1919C26.0491 20.36 26.0249 20.5283 25.9688 20.6871C25.3848 22.3398 24.3577 23.8001 22.9998 24.9086C21.642 26.017 20.0055 26.7308 18.2694 26.972C16.5332 27.2132 14.7641 26.9725 13.1555 26.2762C11.5469 25.5799 10.1607 24.4548 9.14834 23.0239C8.13596 21.593 7.53642 19.9113 7.41523 18.1627C7.29404 16.414 7.65587 14.6657 8.46117 13.1088C9.26647 11.552 10.4843 10.2464 11.9814 9.33486C13.4786 8.42332 15.1975 7.94088 16.9504 7.94027C18.244 7.93533 19.5249 8.1953 20.7143 8.70418C21.9036 9.21305 22.9762 9.96005 23.8659 10.8992L23.9107 10.9488L24.2559 11.3492L25.4314 10.1737C25.494 10.1096 25.5688 10.0586 25.6512 10.0237C25.7337 9.9888 25.8223 9.97063 25.9119 9.97025C26.003 9.96951 26.0934 9.98685 26.1778 10.0213C26.2622 10.0557 26.339 10.1065 26.4036 10.1708C26.4683 10.235 26.5195 10.3115 26.5544 10.3957C26.5893 10.4799 26.6072 10.5702 26.607 10.6613L26.6094 15.43Z" fill="#0184D3"/>
</svg>
