<svg width="24" height="24" viewBox="0 0 24 24" fill="none" xmlns="http://www.w3.org/2000/svg">
<path fill-rule="evenodd" clip-rule="evenodd" d="M9.31039 11.1408L12.2756 14.2621C12.5971 14.6005 13.1793 14.6488 13.828 14.3299C15.4787 13.6472 16.0279 13.4808 16.3415 13.8108L19.75 17.3988C20.1529 17.8229 20.0454 18.5293 19.5949 19.0036C17.2553 21.4663 13.4527 21.4663 11.1132 19.0036L4.74586 12.3012C2.41805 9.85084 2.41805 5.88665 4.74586 3.43632C5.20593 2.95204 5.91244 2.83288 6.33054 3.27298L9.73907 6.86092C10.0345 7.1719 9.8761 7.75113 9.23107 9.47697C8.93122 10.1506 8.97926 10.7922 9.31039 11.1408Z" fill="#303030"/>
</svg>
