<svg width="20" height="20" viewBox="0 0 20 20" fill="none" xmlns="http://www.w3.org/2000/svg">
<path d="M10 10.0001C10.4583 10.0001 10.8508 9.83675 11.1775 9.51008C11.5036 9.18397 11.6667 8.79175 11.6667 8.33341C11.6667 7.87508 11.5036 7.48258 11.1775 7.15591C10.8508 6.8298 10.4583 6.66675 10 6.66675C9.54168 6.66675 9.14945 6.8298 8.82334 7.15591C8.49668 7.48258 8.33334 7.87508 8.33334 8.33341C8.33334 8.79175 8.49668 9.18397 8.82334 9.51008C9.14945 9.83675 9.54168 10.0001 10 10.0001ZM10 18.3334C7.7639 16.4306 6.0939 14.6631 4.99001 13.0309C3.88557 11.3992 3.33334 9.88897 3.33334 8.50008C3.33334 6.41675 4.00362 4.75703 5.34418 3.52091C6.68418 2.2848 8.23612 1.66675 10 1.66675C11.7639 1.66675 13.3158 2.2848 14.6558 3.52091C15.9964 4.75703 16.6667 6.41675 16.6667 8.50008C16.6667 9.88897 16.1147 11.3992 15.0108 13.0309C13.9064 14.6631 12.2361 16.4306 10 18.3334Z" fill="#727272"/>
</svg>
