<svg width="20" height="20" viewBox="0 0 20 20" fill="none" xmlns="http://www.w3.org/2000/svg">
<path d="M6.50002 1.66675H13.5C16.1667 1.66675 18.3334 3.83341 18.3334 6.50008V13.5001C18.3334 14.782 17.8241 16.0113 16.9177 16.9178C16.0113 17.8242 14.7819 18.3334 13.5 18.3334H6.50002C3.83335 18.3334 1.66669 16.1667 1.66669 13.5001V6.50008C1.66669 5.2182 2.17591 3.98882 3.08234 3.0824C3.98876 2.17597 5.21814 1.66675 6.50002 1.66675ZM6.33335 3.33341C5.5377 3.33341 4.77464 3.64949 4.21203 4.21209C3.64942 4.7747 3.33335 5.53777 3.33335 6.33341V13.6667C3.33335 15.3251 4.67502 16.6667 6.33335 16.6667H13.6667C14.4623 16.6667 15.2254 16.3507 15.788 15.7881C16.3506 15.2255 16.6667 14.4624 16.6667 13.6667V6.33341C16.6667 4.67508 15.325 3.33341 13.6667 3.33341H6.33335ZM14.375 4.58341C14.6513 4.58341 14.9162 4.69316 15.1116 4.88851C15.3069 5.08386 15.4167 5.34881 15.4167 5.62508C15.4167 5.90135 15.3069 6.1663 15.1116 6.36165C14.9162 6.557 14.6513 6.66675 14.375 6.66675C14.0988 6.66675 13.8338 6.557 13.6384 6.36165C13.4431 6.1663 13.3334 5.90135 13.3334 5.62508C13.3334 5.34881 13.4431 5.08386 13.6384 4.88851C13.8338 4.69316 14.0988 4.58341 14.375 4.58341ZM10 5.83341C11.1051 5.83341 12.1649 6.2724 12.9463 7.0538C13.7277 7.8352 14.1667 8.89501 14.1667 10.0001C14.1667 11.1052 13.7277 12.165 12.9463 12.9464C12.1649 13.7278 11.1051 14.1667 10 14.1667C8.89495 14.1667 7.83514 13.7278 7.05374 12.9464C6.27234 12.165 5.83335 11.1052 5.83335 10.0001C5.83335 8.89501 6.27234 7.8352 7.05374 7.0538C7.83514 6.2724 8.89495 5.83341 10 5.83341ZM10 7.50008C9.33698 7.50008 8.70109 7.76347 8.23225 8.23231C7.76341 8.70115 7.50002 9.33704 7.50002 10.0001C7.50002 10.6631 7.76341 11.299 8.23225 11.7678C8.70109 12.2367 9.33698 12.5001 10 12.5001C10.6631 12.5001 11.2989 12.2367 11.7678 11.7678C12.2366 11.299 12.5 10.6631 12.5 10.0001C12.5 9.33704 12.2366 8.70115 11.7678 8.23231C11.2989 7.76347 10.6631 7.50008 10 7.50008Z" fill="#303030"/>
</svg>
