<svg width="33" height="29" viewBox="0 0 33 29" fill="none" xmlns="http://www.w3.org/2000/svg">
<path d="M17.0222 1.15621C18.0767 0.167784 19.8038 0.915712 19.8038 2.36135V26.636C19.8038 28.0816 18.078 28.8296 17.0222 27.8411L10.4983 21.7282C10.0699 21.3268 9.5049 21.1034 8.91785 21.1032H4.93771C3.7987 21.1032 2.70634 20.6507 1.90094 19.8453C1.09554 19.0399 0.643066 17.9475 0.643066 16.8085V12.1941C0.643066 11.0551 1.09554 9.96273 1.90094 9.15733C2.70634 8.35193 3.7987 7.89946 4.93771 7.89946H8.91653C9.50457 7.89946 10.0701 7.67482 10.4983 7.27442L17.0222 1.15621ZM26.6012 2.85028C26.7986 2.67692 27.0567 2.589 27.3188 2.60585C27.581 2.6227 27.8257 2.74293 27.9993 2.94014C30.8133 6.13291 32.3632 10.2441 32.3574 14.5C32.3574 18.9294 30.7109 22.9756 27.9993 26.0585C27.9147 26.1607 27.8105 26.2449 27.6928 26.3061C27.5751 26.3673 27.4463 26.4042 27.3141 26.4147C27.1818 26.4252 27.0488 26.409 26.923 26.3672C26.7971 26.3253 26.6809 26.2586 26.5813 26.171C26.4817 26.0835 26.4006 25.9768 26.343 25.8573C26.2854 25.7378 26.2523 25.608 26.2458 25.4755C26.2393 25.343 26.2594 25.2105 26.305 25.086C26.3507 24.9614 26.4208 24.8473 26.5114 24.7503C29.0069 21.9195 30.3812 18.2738 30.3752 14.5C30.3814 10.7262 29.0072 7.08037 26.5114 4.24968C26.4253 4.15192 26.3594 4.03816 26.3173 3.91491C26.2753 3.79165 26.2579 3.66132 26.2663 3.53136C26.2746 3.40139 26.3085 3.27435 26.366 3.15749C26.4234 3.04062 26.5034 2.93623 26.6012 2.85028ZM24.8952 6.97182C24.7375 6.76154 24.5028 6.62252 24.2425 6.58535C23.9823 6.54818 23.718 6.61589 23.5077 6.7736C23.2975 6.93131 23.1584 7.16609 23.1213 7.4263C23.0841 7.68651 23.1518 7.95082 23.3095 8.1611C24.683 9.98868 25.4238 12.2139 25.4199 14.5C25.4199 16.8786 24.6349 19.0721 23.3095 20.8389C23.2314 20.943 23.1746 21.0615 23.1423 21.1876C23.11 21.3136 23.1029 21.4448 23.1213 21.5737C23.1397 21.7025 23.1833 21.8265 23.2496 21.9385C23.3159 22.0505 23.4036 22.1483 23.5077 22.2264C23.6119 22.3045 23.7303 22.3613 23.8564 22.3936C23.9825 22.4259 24.1137 22.433 24.2425 22.4146C24.3714 22.3962 24.4953 22.3526 24.6073 22.2863C24.7193 22.22 24.8172 22.1323 24.8952 22.0282C26.5261 19.8575 27.406 17.215 27.402 14.5C27.4061 11.785 26.5262 9.14241 24.8952 6.97182Z" fill="#395319"/>
</svg>
