<svg width="20" height="20" viewBox="0 0 20 20" fill="none" xmlns="http://www.w3.org/2000/svg">
<path fill-rule="evenodd" clip-rule="evenodd" d="M7.82559 9.31659L10.0931 11.7384C10.3389 12.001 10.7842 12.0385 11.2802 11.7911C12.5425 11.2614 12.9625 11.1322 13.2023 11.3883L15.8088 14.1723C16.117 14.5013 16.0347 15.0495 15.6902 15.4175C13.9011 17.3283 10.9932 17.3283 9.20419 15.4175L4.33507 10.2169C2.55498 8.31569 2.55498 5.2398 4.33507 3.33855C4.68689 2.96279 5.22716 2.87033 5.54688 3.21181L8.15341 5.99575C8.37933 6.23705 8.25819 6.68649 7.76494 8.0256C7.53564 8.54832 7.57238 9.04614 7.82559 9.31659Z" fill="#727272"/>
</svg>
