<svg width="20" height="20" viewBox="0 0 20 20" fill="none" xmlns="http://www.w3.org/2000/svg">
<path d="M19.8333 9.34857H18.1061V7.62129H16.3788V9.34857H14.6515V11.0758H16.3788V12.8031H18.1061V11.0758H19.8333M6.8788 9.34857V11.4213H10.3333C10.1606 12.2849 9.29698 14.0122 6.8788 14.0122C4.80607 14.0122 3.16516 12.2849 3.16516 10.2122C3.16516 8.13948 4.80607 6.4122 6.8788 6.4122C8.08789 6.4122 8.86516 6.93038 9.29698 7.3622L10.9379 5.80766C9.90153 4.77129 8.51971 4.16675 6.8788 4.16675C3.51062 4.16675 0.833344 6.84402 0.833344 10.2122C0.833344 13.5804 3.51062 16.2577 6.8788 16.2577C10.3333 16.2577 12.6652 13.8395 12.6652 10.3849C12.6652 9.95311 12.6652 9.69402 12.5788 9.34857H6.8788Z" fill="#303030"/>
</svg>
