<svg width="20" height="20" viewBox="0 0 20 20" fill="none" xmlns="http://www.w3.org/2000/svg">
<path fill-rule="evenodd" clip-rule="evenodd" d="M11.2359 10.0352L17.9732 5.31336C17.4779 4.52445 16.6002 4 15.6 4H4.40001C3.39979 4 2.52207 4.52445 2.02683 5.31336L8.76411 10.0352C9.50527 10.5281 10.4947 10.5281 11.2359 10.0352ZM8.07849 10.5631L1.69164 6.08685C1.63185 6.31454 1.60001 6.55355 1.60001 6.8V14C1.60001 14.6471 1.81954 15.243 2.18819 15.7171L8.07849 10.5631ZM18.4 6.8C18.4 6.55355 18.3682 6.31454 18.3084 6.08685L11.9291 10.5578L17.8173 15.7101C18.1827 15.237 18.4 14.6439 18.4 14V6.8ZM2.76631 16.2743L8.66713 11.111C8.71818 11.0673 8.75452 11.0194 8.77824 10.9698C9.55881 11.2979 10.4537 11.2963 11.2331 10.965C11.2568 11.0163 11.2938 11.0659 11.3465 11.111L17.2412 16.2689C16.78 16.603 16.213 16.8 15.6 16.8H4.40001C3.7903 16.8 3.2261 16.6051 2.76631 16.2743Z" fill="#727272"/>
</svg>
