<svg width="31" height="31" viewBox="0 0 31 31" fill="none" xmlns="http://www.w3.org/2000/svg">
<path d="M29.2013 10.5376C30.9957 8.74341 30.1775 6.64777 29.2013 5.62866L24.8946 1.32256C23.0858 -0.471648 21.0043 0.346511 19.985 1.32256L17.5446 3.77704H13.8265C11.0989 3.77704 9.5198 5.21241 8.71588 6.86308L2.34201 13.2361V18.9776L1.32276 19.9823C-0.471684 21.7909 0.346583 23.8722 1.32276 24.8913L5.62943 29.1974C6.40464 29.9725 7.23726 30.2596 8.02682 30.2596C9.04606 30.2596 9.97917 29.7572 10.539 29.1974L14.415 25.3076H19.5687C22.0091 25.3076 23.2437 23.7861 23.6887 22.2933C25.3109 21.8627 26.201 20.6283 26.5599 19.4225C28.785 18.8484 29.6176 16.7384 29.6176 15.26V10.9539H28.7706L29.2013 10.5376ZM26.7465 15.26C26.7465 15.9059 26.4737 16.6953 25.3109 16.6953H23.8754V18.1307C23.8754 18.7766 23.6026 19.5661 22.4398 19.5661H21.0043V21.0014C21.0043 21.6474 20.7315 22.4368 19.5687 22.4368H13.2379L8.52926 27.1448C8.08424 27.5611 7.82584 27.3171 7.66793 27.1592L3.37561 22.8818C2.9593 22.4368 3.20334 22.1784 3.36125 22.0206L5.21312 20.1546V14.4131L8.08424 11.5424V13.8246C8.08424 15.5614 9.23268 18.1307 12.3909 18.1307C15.5491 18.1307 16.6976 15.5614 16.6976 13.8246H26.7465V15.26ZM27.1628 8.4994L24.7223 10.9539H13.8265V13.8246C13.8265 14.4705 13.5537 15.26 12.3909 15.26C11.2281 15.26 10.9554 14.4705 10.9554 13.8246V9.51851C10.9554 8.85824 11.1994 6.64777 13.8265 6.64777H18.7217L21.9948 3.37514C22.4398 2.95888 22.6982 3.20289 22.8561 3.36078L27.1484 7.63818C27.5648 8.08314 27.3207 8.34151 27.1628 8.4994Z" fill="#0FA958"/>
</svg>
